# xmcd
# Track frame offsets:
# 150
# 7010
# 15615
# 23548
# 29280
# 37703
# 44653
# 55275
# 65843
# 73268
#
# Disc length: 1076 seconds
# Revision: 0
# Processed by: cddbd v1.4PL0 Copyright (c) Steve Scherf et al.
# Submitted via: VisiTrax 2.9.5.180 - For more info visit www.synapsa.com
#
DISCID=8204320a
DTITLE=Webb Pierce - Wondering Bo
DYEAR=1995
DGENRE=
TTITLE0=I'm walking the dog
TTITLE1=Slowly
TTITLE2=It's been so long
TTITLE3=There stands the glass
TTITLE4=Even tho'
TTITLE5=I'm gonna fall out of love with you
TTITLE6=In the jail house now
TTITLE7=Wondering
TTITLE8=ou can't be true
TTITLE9=I'm not in love with you
EXTD=
EXTT0=
EXTT1=
EXTT2=
EXTT3=
EXTT4=
EXTT5=
EXTT6=
EXTT7=
EXTT8=
EXTT9=
PLAYORDER=
